<svg width="153" height="153" viewBox="0 0 153 153" fill="none" xmlns="http://www.w3.org/2000/svg">
<path d="M132.824 62.6587V64.1364H129.868V62.6587H132.824ZM97.9551 41.0449C97.378 40.4678 97.378 39.5322 97.9551 38.9551L107.359 29.5508C107.936 28.9737 108.872 28.9737 109.449 29.5508C110.026 30.1279 110.026 31.0636 109.449 31.6407L101.09 40L109.449 48.3593C110.026 48.9364 110.026 49.8721 109.449 50.4492C108.872 51.0263 107.936 51.0263 107.359 50.4492L97.9551 41.0449ZM129.868 62.6587V46.5677H132.824V62.6587H129.868ZM124.778 41.4777H99V38.5223H124.778V41.4777ZM129.868 46.5677C129.868 43.7566 127.589 41.4777 124.778 41.4777V38.5223C129.222 38.5223 132.824 42.1243 132.824 46.5677H129.868Z" fill="url(#paint0_linear_1062_325)"/>
<path d="M19.5223 82V80.5223H22.4777V82H19.5223ZM54.391 103.614C54.9681 104.191 54.9681 105.126 54.391 105.704L44.9867 115.108C44.4096 115.685 43.474 115.685 42.8969 115.108C42.3198 114.531 42.3198 113.595 42.8969 113.018L51.2562 104.659L42.8969 96.2993C42.3198 95.7222 42.3198 94.7866 42.8969 94.2095C43.474 93.6324 44.4096 93.6324 44.9867 94.2095L54.391 103.614ZM22.4777 82V98.0909H19.5223V82H22.4777ZM27.5677 103.181H53.346V106.136H27.5677V103.181ZM22.4777 98.0909C22.4777 100.902 24.7566 103.181 27.5677 103.181V106.136C23.1243 106.136 19.5223 102.534 19.5223 98.0909H22.4777Z" fill="url(#paint1_linear_1062_325)"/>
<g filter="url(#filter0_d_1062_325)">
<rect x="60" y="56" width="83" height="83" rx="21" fill="white"/>
<path d="M87.3565 76.106C90.2962 75.7248 93.3508 76.3792 95.8669 77.9477C97.2871 78.7849 98.4231 79.9967 99.5881 81.1438C100.433 81.971 101.269 82.8082 102.116 83.6331L102.148 83.719C101.515 84.3421 100.797 85.588 99.9933 87.4567C98.3084 88.0494 97.1585 88.6478 96.5436 89.2517C95.1712 87.9307 93.8435 86.5628 92.4768 85.2351C91.1769 84.0177 89.2127 83.5272 87.5104 84.0857C85.5717 84.6309 84.0924 86.4848 83.9898 88.497C83.923 89.5438 84.1961 90.6073 84.7624 91.4902C85.1147 92.0588 85.6297 92.4924 86.0912 92.9673C87.2005 94.0821 88.3364 95.1713 89.4289 96.3017C88.8455 96.875 88.1547 97.9849 87.3565 99.6312C85.6587 100.436 84.4807 101.168 83.8226 101.827C82.3478 100.44 80.9375 98.9783 79.476 97.5759C77.7358 95.7655 76.572 93.4166 76.1707 90.9384C75.7292 88.2796 76.1484 85.4804 77.3791 83.0802C78.4125 81.068 79.9766 79.32 81.8795 78.0926C83.5339 77.0525 85.4079 76.3234 87.3565 76.106Z" fill="#EA4335"/>
<path d="M102.172 108.853L114.924 96.285L118.372 98.3328L120.529 101.839L102.172 120L89.4378 107.402L91.8815 103.963L95.0776 101.834L102.172 108.853Z" fill="#34A853"/>
<path d="M96.5547 89.264L99.7622 90.999L102.172 94.8335L89.4378 107.402L83.8226 101.827L96.5547 89.264Z" fill="#FBBC05"/>
<path d="M117.549 76.183C121.285 76.8162 124.722 79.1494 126.606 82.4503C128.752 86.0768 128.869 90.7823 126.965 94.5347C126.176 96.1467 124.971 97.5068 123.688 98.7431C122.623 99.7609 121.612 100.847 120.53 101.839C118.657 99.9928 116.782 98.1478 114.924 96.285C116.248 94.9483 117.592 93.634 118.92 92.3018C119.776 91.4367 120.312 90.2506 120.356 89.0299C120.415 87.6442 119.867 86.2384 118.863 85.2775C117.84 84.3087 116.406 83.758 114.995 83.875C113.781 83.933 112.609 84.4837 111.753 85.3421C108.558 88.5037 105.371 91.6742 102.172 94.8335C100.292 92.9852 98.4087 91.1391 96.5548 89.264C96.5526 89.2606 96.547 89.2551 96.5436 89.2517C98.4165 87.4123 100.277 85.5606 102.148 83.719C103.503 82.3835 104.854 81.0424 106.211 79.7057C107.968 77.941 110.285 76.7849 112.705 76.2543C114.3 75.9544 115.946 75.921 117.549 76.183Z" fill="#4285F4"/>
</g>
<g filter="url(#filter1_d_1062_325)">
<rect x="10" y="6" width="83" height="83" rx="21" fill="#FFE8C5"/>
<path fill-rule="evenodd" clip-rule="evenodd" d="M52.223 33.8761C52.223 33.8761 60.2745 19.9884 72.1002 29.0955C87.4598 40.9241 71.4782 58.0796 60.5757 67.2627C55.6981 71.3711 48.748 71.3711 43.8704 67.2627C32.9679 58.0796 16.9863 40.9241 32.3459 29.0955C44.1715 19.9884 52.223 33.8761 52.223 33.8761ZM64.8035 46.4568C58.9751 44.3001 54.3798 39.7047 52.2231 33.8763C50.0664 39.7047 45.471 44.3001 39.6426 46.4568C45.471 48.6135 50.0664 53.2088 52.2231 59.0372C54.3798 53.2088 58.9751 48.6135 64.8035 46.4568Z" fill="#FFBE57"/>
</g>
<defs>
<filter id="filter0_d_1062_325" x="50" y="50" width="103" height="103" filterUnits="userSpaceOnUse" color-interpolation-filters="sRGB">
<feFlood flood-opacity="0" result="BackgroundImageFix"/>
<feColorMatrix in="SourceAlpha" type="matrix" values="0 0 0 0 0 0 0 0 0 0 0 0 0 0 0 0 0 0 127 0" result="hardAlpha"/>
<feOffset dy="4"/>
<feGaussianBlur stdDeviation="5"/>
<feComposite in2="hardAlpha" operator="out"/>
<feColorMatrix type="matrix" values="0 0 0 0 0.683333 0 0 0 0 0.683333 0 0 0 0 0.683333 0 0 0 0.25 0"/>
<feBlend mode="normal" in2="BackgroundImageFix" result="effect1_dropShadow_1062_325"/>
<feBlend mode="normal" in="SourceGraphic" in2="effect1_dropShadow_1062_325" result="shape"/>
</filter>
<filter id="filter1_d_1062_325" x="0" y="0" width="103" height="103" filterUnits="userSpaceOnUse" color-interpolation-filters="sRGB">
<feFlood flood-opacity="0" result="BackgroundImageFix"/>
<feColorMatrix in="SourceAlpha" type="matrix" values="0 0 0 0 0 0 0 0 0 0 0 0 0 0 0 0 0 0 127 0" result="hardAlpha"/>
<feOffset dy="4"/>
<feGaussianBlur stdDeviation="5"/>
<feComposite in2="hardAlpha" operator="out"/>
<feColorMatrix type="matrix" values="0 0 0 0 0.683333 0 0 0 0 0.683333 0 0 0 0 0.683333 0 0 0 0.25 0"/>
<feBlend mode="normal" in2="BackgroundImageFix" result="effect1_dropShadow_1062_325"/>
<feBlend mode="normal" in="SourceGraphic" in2="effect1_dropShadow_1062_325" result="shape"/>
</filter>
<linearGradient id="paint0_linear_1062_325" x1="131.346" y1="51.3293" x2="99" y2="51.3293" gradientUnits="userSpaceOnUse">
<stop stop-color="#FF2A1A"/>
<stop offset="1" stop-color="#FF60AA"/>
</linearGradient>
<linearGradient id="paint1_linear_1062_325" x1="21.1642" y1="93.4935" x2="53.346" y2="93.4935" gradientUnits="userSpaceOnUse">
<stop stop-color="#FFBE57"/>
<stop offset="1" stop-color="#E6FF57"/>
</linearGradient>
</defs>
</svg>
