<svg width="60" height="78" viewBox="0 0 60 78" fill="none" xmlns="http://www.w3.org/2000/svg">
<path d="M20.9994 1.5C20.9994 1.5 21.5463 14.6896 16.4993 23.5C13.3487 29 1.50001 31 2.49933 42C3.34528 51.3118 16.4994 52 16.4994 52M13.5 44.5C13.5 44.5 18.5006 44 20 45.5C21.4994 47 25.1 50.5 29.5 50.5C33.9 50.5 38.5006 47 40 45.5C41.4994 44 46.5 44.5 46.5 44.5M39.0006 1.5C39.0006 1.5 38.4537 14.6896 43.5007 23.5C46.6513 29 58.5 31 57.5007 42C56.6547 51.3118 43.5006 52 43.5006 52M11.5 62.5L20 56L24.5 65.5H20.5V76.5L9 74L15 64.5L11.5 62.5ZM48.5 62.5L40 56L35.5 65.5H39.5V76.5L51 74L45 64.5L48.5 62.5Z" stroke="#1E1E1E" stroke-width="3" stroke-linecap="round" stroke-linejoin="round"/>
</svg>
