<svg width="59" height="79" viewBox="0 0 59 79" fill="none" xmlns="http://www.w3.org/2000/svg">
<path d="M20.5597 2C20.5597 2 21.1066 15.1896 16.0596 24C12.909 29.5 1.06031 31.5 2.05963 42.5C2.90558 51.8118 16.0597 52.5 16.0597 52.5M13.0603 45C13.0603 45 18.0609 44.5 19.5603 46C21.0597 47.5 24.6603 51 29.0603 51C33.4603 51 38.0609 47.5 39.5603 46C41.0597 44.5 46.0603 45 46.0603 45M38.5609 2C38.5609 2 38.014 15.1896 43.061 24C46.2116 29.5 58.0603 31.5 57.061 42.5C56.215 51.8118 43.0609 52.5 43.0609 52.5M37.0603 70.5L45.5603 77L50.0603 67.5H46.0603V56.5L34.5603 59L40.5603 68.5L37.0603 70.5ZM22.5603 70.5L14.0603 77L9.56031 67.5H13.5603V56.5L25.0603 59L19.0603 68.5L22.5603 70.5Z" stroke="#1E1E1E" stroke-width="3" stroke-linecap="round" stroke-linejoin="round"/>
</svg>
