<svg width="40" height="40" viewBox="0 0 40 40" fill="none" xmlns="http://www.w3.org/2000/svg">
<path d="M27.1429 30.5828L29.9262 32.1732C30.4549 32.4754 30.3772 33.2607 29.7995 33.4533L29.1808 33.6595L32.1816 37.8607C32.4471 38.2324 32.2941 38.7547 31.87 38.9243L29.8493 39.7326C29.4824 39.8793 29.0667 39.6958 28.928 39.3259L27.0673 34.364L26.2209 34.6461C25.6834 34.8253 25.1651 34.329 25.3207 33.7842L26.1159 31.0009C26.2415 30.5614 26.746 30.356 27.1429 30.5828Z" fill="url(#paint0_linear_973_29)"/>
<path d="M15.0151 30.5828L12.2318 32.1732C11.7031 32.4754 11.7808 33.2607 12.3585 33.4533L12.9772 33.6595L9.97636 37.8607C9.71085 38.2324 9.86386 38.7547 10.288 38.9243L12.3087 39.7326C12.6756 39.8793 13.0913 39.6958 13.23 39.3259L15.0907 34.364L15.9371 34.6461C16.4746 34.8253 16.9929 34.329 16.8373 33.7842L16.0421 31.0009C15.9165 30.5614 15.412 30.356 15.0151 30.5828Z" fill="url(#paint1_linear_973_29)"/>
<path d="M12.8384 12.6479C13.4058 4.8816 16.4138 0 19.8657 0C23.3175 0 26.3256 4.8816 26.893 12.6479C27.0072 14.2109 28.112 15.5276 29.5764 16.0857C31.9555 16.9923 34.4138 18.6319 34.6602 21.3699C35.041 25.6003 34.1123 29.0411 26.441 28.4932C26.441 28.4932 24.9485 28.1538 24.7972 27.3973C24.6191 26.507 25.6918 26.2661 26.441 25.7534C27.7267 24.8737 29.7543 26.1252 30.2766 24.6575C30.4919 24.0527 30.5716 23.5839 30.2766 23.0137C29.7754 22.0445 28.6274 22.429 27.5369 22.4658C26.1843 22.5113 25.391 22.8351 24.2493 23.5616C23.228 24.2115 23.0527 25.0644 22.0575 25.7534C21.2707 26.2981 20.8227 26.8493 19.8657 26.8493C18.9087 26.8493 18.4607 26.2981 17.6739 25.7534C16.6787 25.0644 16.5034 24.2115 15.4821 23.5616C14.3403 22.8351 13.5471 22.5113 12.1945 22.4658C11.104 22.429 9.95601 22.0445 9.45473 23.0137C9.1598 23.5839 9.23946 24.0527 9.45473 24.6575C9.97711 26.1252 12.0046 24.8737 13.2903 25.7534C14.0396 26.2661 15.1122 26.507 14.9342 27.3973C14.7829 28.1538 13.2903 28.4932 13.2903 28.4932C5.61911 29.0411 4.69041 25.6003 5.07117 21.3699C5.3176 18.6319 7.77584 16.9923 10.155 16.0857C11.6194 15.5276 12.7242 14.2109 12.8384 12.6479Z" fill="url(#paint2_linear_973_29)"/>
<defs>
<linearGradient id="paint0_linear_973_29" x1="28.8029" y1="30.4895" x2="28.8029" y2="39.7832" gradientUnits="userSpaceOnUse">
<stop stop-color="#FFB156"/>
<stop offset="1" stop-color="#FDECD7"/>
</linearGradient>
<linearGradient id="paint1_linear_973_29" x1="13.3295" y1="30.137" x2="13.3295" y2="40" gradientUnits="userSpaceOnUse">
<stop stop-color="#FFB156"/>
<stop offset="1" stop-color="#FDECD7"/>
</linearGradient>
<linearGradient id="paint2_linear_973_29" x1="19.8657" y1="0" x2="19.8657" y2="28.5507" gradientUnits="userSpaceOnUse">
<stop stop-color="#FDECD7"/>
<stop offset="1" stop-color="#FFB156"/>
</linearGradient>
</defs>
</svg>
