<svg width="40" height="40" viewBox="0 0 40 40" fill="none" xmlns="http://www.w3.org/2000/svg">
<g clip-path="url(#clip0_973_83)">
<path fill-rule="evenodd" clip-rule="evenodd" d="M6.53846 3.02075C5.13651 3.02075 4 4.15727 4 5.55922V37.461C4 38.8629 5.13651 39.9994 6.53846 39.9994H34.4615C35.8635 39.9994 37 38.8629 37 37.461V5.55921C37 4.15726 35.8635 3.02075 34.4615 3.02075H6.53846ZM10.405 10.723C9.68114 10.6996 9.07692 11.2808 9.07692 12.0084C9.07692 12.6879 9.60613 13.2466 10.282 13.2692C11.9726 13.3257 15.0916 13.3925 17.3269 13.2218C19.6831 13.0419 22.9585 12.4527 24.5823 12.1422C25.1626 12.0313 25.5769 11.5205 25.5769 10.927C25.5769 10.1364 24.8548 9.54225 24.0812 9.68664C22.3491 10.0099 19.461 10.5086 17.3269 10.6716C15.1447 10.8382 12.1204 10.7785 10.405 10.723ZM10.405 14.5484C9.68114 14.525 9.07692 15.1062 9.07692 15.8338C9.07692 16.5132 9.60613 17.072 10.282 17.0946C11.9726 17.1511 15.0916 17.2179 17.3269 17.0472C19.6831 16.8672 22.9585 16.2781 24.5823 15.9676C25.1626 15.8566 25.5769 15.3458 25.5769 14.7523C25.5769 13.9618 24.8548 13.3676 24.0812 13.512C22.3491 13.8353 19.461 14.3339 17.3269 14.4969C15.1447 14.6636 12.1204 14.6038 10.405 14.5484ZM9.07692 19.6592C9.07692 18.9316 9.68114 18.3503 10.405 18.3737C12.1204 18.4292 15.1447 18.489 17.3269 18.3223C19.461 18.1593 22.3491 17.6607 24.0812 17.3374C24.8548 17.193 25.5769 17.7872 25.5769 18.5777C25.5769 19.1712 25.1626 19.682 24.5823 19.793C22.9585 20.1035 19.6831 20.6926 17.3269 20.8726C15.0916 21.0433 11.9726 20.9764 10.282 20.92C9.60613 20.8974 9.07692 20.3386 9.07692 19.6592ZM10.405 22.1991C9.68114 22.1757 9.07692 22.7569 9.07692 23.4846C9.07692 24.164 9.60613 24.7228 10.282 24.7453C11.9726 24.8018 15.0916 24.8687 17.3269 24.698C19.6831 24.518 22.9585 23.9289 24.5823 23.6184C25.1626 23.5074 25.5769 22.9966 25.5769 22.4031C25.5769 21.6126 24.8548 21.0184 24.0812 21.1628C22.3491 21.4861 19.461 21.9847 17.3269 22.1477C15.1447 22.3144 12.1204 22.2546 10.405 22.1991Z" fill="url(#paint0_linear_973_83)"/>
<path fill-rule="evenodd" clip-rule="evenodd" d="M6.56996 3.01163C5.15567 3.03162 4 4.17698 4 5.59142V37.4928C4 38.8823 5.11531 40.0102 6.50469 39.9912C9.1088 39.9557 13.2745 39.8227 16.6923 39.362C20.6337 38.8307 26.0309 37.4426 28.8194 36.6852C29.9097 36.3891 30.6538 35.3968 30.6538 34.267V2.5743C30.6538 0.883718 29.0326 -0.342874 27.3973 0.0861854C24.4396 0.862243 20.0406 1.93194 16.6923 2.38326C13.3029 2.84013 9.17801 2.97478 6.56996 3.01163ZM10.405 10.723C9.68114 10.6996 9.07692 11.2808 9.07692 12.0084C9.07692 12.6879 9.60613 13.2466 10.282 13.2692C11.9726 13.3257 15.0916 13.3925 17.3269 13.2218C19.6831 13.0419 22.9585 12.4528 24.5823 12.1422C25.1626 12.0313 25.5769 11.5205 25.5769 10.927C25.5769 10.1364 24.8548 9.54225 24.0812 9.68665C22.3491 10.0099 19.461 10.5086 17.3269 10.6716C15.1447 10.8382 12.1204 10.7785 10.405 10.723ZM10.405 14.5484C9.68114 14.525 9.07692 15.1062 9.07692 15.8338C9.07692 16.5132 9.60613 17.072 10.282 17.0946C11.9726 17.1511 15.0916 17.2179 17.3269 17.0472C19.6831 16.8672 22.9585 16.2781 24.5823 15.9676C25.1626 15.8566 25.5769 15.3459 25.5769 14.7523C25.5769 13.9618 24.8548 13.3676 24.0812 13.512C22.3491 13.8353 19.461 14.3339 17.3269 14.4969C15.1447 14.6636 12.1204 14.6038 10.405 14.5484ZM9.07692 19.6592C9.07692 18.9316 9.68114 18.3503 10.405 18.3738C12.1204 18.4292 15.1447 18.489 17.3269 18.3223C19.461 18.1593 22.3491 17.6607 24.0812 17.3374C24.8548 17.193 25.5769 17.7872 25.5769 18.5777C25.5769 19.1712 25.1626 19.682 24.5823 19.793C22.9585 20.1035 19.6831 20.6926 17.3269 20.8726C15.0916 21.0433 11.9726 20.9764 10.282 20.92C9.60613 20.8974 9.07692 20.3386 9.07692 19.6592ZM10.405 22.1991C9.68114 22.1757 9.07692 22.757 9.07692 23.4846C9.07692 24.164 9.60613 24.7228 10.282 24.7453C11.9726 24.8018 15.0916 24.8687 17.3269 24.698C19.6831 24.518 22.9585 23.9289 24.5823 23.6184C25.1626 23.5074 25.5769 22.9966 25.5769 22.4031C25.5769 21.6126 24.8548 21.0184 24.0812 21.1628C22.3491 21.4861 19.461 21.9847 17.3269 22.1477C15.1447 22.3144 12.1204 22.2546 10.405 22.1991Z" fill="url(#paint1_linear_973_83)"/>
</g>
<defs>
<linearGradient id="paint0_linear_973_83" x1="37" y1="20.8725" x2="4" y2="20.8725" gradientUnits="userSpaceOnUse">
<stop stop-color="#D6EBBA"/>
<stop offset="1" stop-color="#B0D382"/>
</linearGradient>
<linearGradient id="paint1_linear_973_83" x1="4" y1="19.9939" x2="31.9213" y2="18.7049" gradientUnits="userSpaceOnUse">
<stop stop-color="#D6EBBA"/>
<stop offset="1" stop-color="#B0D382"/>
</linearGradient>
<clipPath id="clip0_973_83">
<rect width="40" height="40" fill="white"/>
</clipPath>
</defs>
</svg>
