<svg width="40" height="40" viewBox="0 0 40 40" fill="none" xmlns="http://www.w3.org/2000/svg">
<path d="M5.79026 19C6.38875 11.6926 12.2852 7 20 7C27.7148 7 33.6113 11.6926 34.2097 19C34.5733 23.4389 31.6008 28.4063 28.5485 31.4935C27.0999 32.9588 27.4923 35.4628 29.4186 36.2946C30.4182 36.7263 31.5875 36.5804 32.3877 35.8661C34.8656 33.6542 39.9311 28.5792 39.9989 24C40.0312 21.8171 39.3457 20.6499 38.9463 18.5C37.3675 10 29.7469 2 20 2C10.2531 2 2.63254 10 1.05368 18.5C0.65434 20.6499 -0.0312118 21.8171 0.0011027 24C0.0690882 28.5925 5.16382 33.6837 7.63382 35.8852C8.42852 36.5936 9.55619 36.7374 10.5335 36.3153C12.4896 35.4706 12.9469 32.8299 11.5451 31.2254C8.8355 28.124 5.43705 23.3126 5.79026 19Z" fill="url(#paint0_linear_973_78)"/>
<rect width="3.76552" height="13.1945" rx="1.88276" transform="matrix(0.860696 -0.509119 0.548131 0.836393 7.22858 22.0392)" fill="url(#paint1_linear_973_78)"/>
<rect width="3.76552" height="13.1945" rx="1.88276" transform="matrix(-0.860696 -0.509119 -0.548131 0.836393 32.5782 21.9171)" fill="url(#paint2_linear_973_78)"/>
<defs>
<linearGradient id="paint0_linear_973_78" x1="20" y1="2" x2="20" y2="37" gradientUnits="userSpaceOnUse">
<stop stop-color="#FDECD7"/>
<stop offset="1" stop-color="#FFB156"/>
</linearGradient>
<linearGradient id="paint1_linear_973_78" x1="3.79565" y1="6.59725" x2="-9.86634e-08" y2="6.59725" gradientUnits="userSpaceOnUse">
<stop stop-color="#FDECD7"/>
<stop offset="1" stop-color="#FFB156"/>
</linearGradient>
<linearGradient id="paint2_linear_973_78" x1="3.79565" y1="6.59725" x2="-9.86634e-08" y2="6.59725" gradientUnits="userSpaceOnUse">
<stop stop-color="#FDECD7"/>
<stop offset="1" stop-color="#FFB156"/>
</linearGradient>
</defs>
</svg>
