<svg width="40" height="40" viewBox="0 0 40 40" fill="none" xmlns="http://www.w3.org/2000/svg">
<path d="M17.4277 13.6666H22.5723C23.3841 13.6666 24.13 14.1076 24.5526 14.8008C25.5366 16.415 27.4788 19.3496 29.4444 20.8888C31.8999 22.8117 36.1889 23.9644 38.4706 24.4713C39.3506 24.6668 40 25.4386 40 26.3402C40 27.3295 39.2204 28.1366 38.2315 28.1064C35.793 28.0318 31.4141 27.642 28.8889 25.8888C26.7429 24.3989 24.4444 20.8888 24.4444 20.8888V22.5555C24.4444 23.7828 23.4495 24.7777 22.2222 24.7777H17.7778C16.5505 24.7777 15.5556 23.7828 15.5556 22.5555V20.8888C15.5556 20.8888 13.2571 24.3989 11.1111 25.8888C8.58595 27.642 4.20697 28.0318 1.76851 28.1064C0.779586 28.1366 0 27.3295 0 26.3402C0 25.4386 0.649364 24.6668 1.52944 24.4713C3.81109 23.9644 8.1001 22.8117 10.5556 20.8888C12.5212 19.3496 14.4634 16.415 15.4474 14.8008C15.87 14.1076 16.6159 13.6666 17.4277 13.6666Z" fill="url(#paint0_linear_973_73)"/>
<path d="M35.4248 32.6209L31.5345 29.8421C24.9669 25.1509 16.1442 25.1509 9.57662 29.8421L5.68631 32.6209C3.04753 34.5057 4.38097 38.6666 7.62377 38.6666H15.5555V34.7777C15.5555 34.1641 16.053 33.6666 16.6667 33.6666H26.3889C26.8491 33.6666 27.2222 34.0397 27.2222 34.5C27.2222 34.9602 26.8491 35.3333 26.3889 35.3333H17.7778C17.1641 35.3333 16.6667 35.8308 16.6667 36.4444V37.5555C16.6667 38.1692 17.1641 38.6666 17.7778 38.6666H33.4873C36.7301 38.6666 38.0636 34.5057 35.4248 32.6209Z" fill="url(#paint1_linear_973_73)"/>
<circle cx="20" cy="6.99997" r="5" fill="url(#paint2_linear_973_73)"/>
<defs>
<linearGradient id="paint0_linear_973_73" x1="20" y1="13.6666" x2="20" y2="28.1072" gradientUnits="userSpaceOnUse">
<stop stop-color="#FFB156"/>
<stop offset="1" stop-color="#FDECD7"/>
</linearGradient>
<linearGradient id="paint1_linear_973_73" x1="20.5555" y1="26.3237" x2="20.5555" y2="38.6666" gradientUnits="userSpaceOnUse">
<stop stop-color="#FDECD7"/>
<stop offset="1" stop-color="#FFB156"/>
</linearGradient>
<linearGradient id="paint2_linear_973_73" x1="20" y1="1.99997" x2="20" y2="12" gradientUnits="userSpaceOnUse">
<stop stop-color="#FDECD7"/>
<stop offset="1" stop-color="#FFB156"/>
</linearGradient>
</defs>
</svg>
