<svg width="40" height="40" viewBox="0 0 40 40" fill="none" xmlns="http://www.w3.org/2000/svg">
<g clip-path="url(#clip0_973_60)">
<path fill-rule="evenodd" clip-rule="evenodd" d="M8 20C12.4183 20 16 16.4183 16 12C16 7.58172 12.4183 4 8 4C3.58172 4 0 7.58172 0 12C0 16.4183 3.58172 20 8 20ZM8.04226 15.5669L7.65818 15.9254C7.11988 16.4279 6.27616 16.3988 5.77368 15.8605L3.30085 13.2114C2.9506 12.8362 2.97084 12.2481 3.34606 11.8979C3.72127 11.5476 4.30937 11.5679 4.65961 11.9431L6.33797 13.7411C6.59946 14.0212 7.04273 14.0238 7.30741 13.7466L10.7011 10.1935C11.0345 9.84438 11.5793 9.80753 11.9567 10.1086C12.3888 10.4532 12.4279 11.0958 12.0409 11.4904L8.04226 15.5669Z" fill="url(#paint0_linear_973_60)"/>
<path d="M17.3333 29.3333C17.3333 33.0152 14.3486 36 10.6667 36C6.98477 36 4 33.0152 4 29.3333C4 25.6514 6.98477 22.6667 10.6667 22.6667C14.3486 22.6667 17.3333 25.6514 17.3333 29.3333Z" fill="url(#paint1_linear_973_60)"/>
<rect x="20" y="6.66667" width="20" height="10.6667" rx="2.66667" fill="url(#paint2_linear_973_60)"/>
<rect x="20.6667" y="24.8889" width="16.6667" height="8.88889" rx="2.22222" fill="url(#paint3_linear_973_60)"/>
</g>
<defs>
<linearGradient id="paint0_linear_973_60" x1="8" y1="4" x2="8" y2="20" gradientUnits="userSpaceOnUse">
<stop stop-color="#FDECD7"/>
<stop offset="1" stop-color="#FFB156"/>
</linearGradient>
<linearGradient id="paint1_linear_973_60" x1="10.6667" y1="22.6667" x2="10.6667" y2="36" gradientUnits="userSpaceOnUse">
<stop stop-color="#FDECD7"/>
<stop offset="1" stop-color="#FFB156"/>
</linearGradient>
<linearGradient id="paint2_linear_973_60" x1="30" y1="6.66667" x2="30" y2="17.3333" gradientUnits="userSpaceOnUse">
<stop stop-color="#FDECD7"/>
<stop offset="1" stop-color="#FFB156"/>
</linearGradient>
<linearGradient id="paint3_linear_973_60" x1="29" y1="24.8889" x2="29" y2="33.7778" gradientUnits="userSpaceOnUse">
<stop stop-color="#FDECD7"/>
<stop offset="1" stop-color="#FFB156"/>
</linearGradient>
<clipPath id="clip0_973_60">
<rect width="40" height="40" fill="white"/>
</clipPath>
</defs>
</svg>
