<svg width="40" height="40" viewBox="0 0 40 40" fill="none" xmlns="http://www.w3.org/2000/svg">
<g clip-path="url(#clip0_973_56)">
<path fill-rule="evenodd" clip-rule="evenodd" d="M20 40C31.0457 40 40 31.0457 40 20C40 8.9543 31.0457 0 20 0C8.9543 0 0 8.9543 0 20C0 31.0457 8.9543 40 20 40ZM14.6667 10C14.6667 12.5773 12.5773 14.6667 10 14.6667C7.42267 14.6667 5.33333 12.5773 5.33333 10C5.33333 7.42267 7.42267 5.33333 10 5.33333C12.5773 5.33333 14.6667 7.42267 14.6667 10ZM26.6667 20C26.6667 23.6819 23.6819 26.6667 20 26.6667C16.3181 26.6667 13.3333 23.6819 13.3333 20C13.3333 16.3181 16.3181 13.3333 20 13.3333C23.6819 13.3333 26.6667 16.3181 26.6667 20ZM10 34.6667C12.5773 34.6667 14.6667 32.5773 14.6667 30C14.6667 27.4227 12.5773 25.3333 10 25.3333C7.42267 25.3333 5.33333 27.4227 5.33333 30C5.33333 32.5773 7.42267 34.6667 10 34.6667ZM34.6667 30C34.6667 32.5773 32.5773 34.6667 30 34.6667C27.4227 34.6667 25.3333 32.5773 25.3333 30C25.3333 27.4227 27.4227 25.3333 30 25.3333C32.5773 25.3333 34.6667 27.4227 34.6667 30ZM30 14.6667C32.5773 14.6667 34.6667 12.5773 34.6667 10C34.6667 7.42267 32.5773 5.33333 30 5.33333C27.4227 5.33333 25.3333 7.42267 25.3333 10C25.3333 12.5773 27.4227 14.6667 30 14.6667Z" fill="url(#paint0_linear_973_56)"/>
</g>
<defs>
<linearGradient id="paint0_linear_973_56" x1="20" y1="0" x2="20" y2="40" gradientUnits="userSpaceOnUse">
<stop stop-color="#FDECD7"/>
<stop offset="1" stop-color="#FFB156"/>
</linearGradient>
<clipPath id="clip0_973_56">
<rect width="40" height="40" fill="white"/>
</clipPath>
</defs>
</svg>
