<svg width="40" height="40" viewBox="0 0 40 40" fill="none" xmlns="http://www.w3.org/2000/svg">
<g clip-path="url(#clip0_973_52)">
<path d="M4.40969 17.3418C7.07149 17.3418 9.2293 15.184 9.2293 12.5222C9.2293 9.86038 7.07149 7.70256 4.40969 7.70256C3.67051 7.70256 2.97018 7.86897 2.34415 8.16637C2.34415 8.16637 2.60443 6.96249 3.03266 6.32553C3.78043 5.2133 5.63669 4.94253 6.98817 4.90235C7.81817 4.87767 8.54079 4.22367 8.54079 3.39331C8.54079 2.70379 8.03758 2.12119 7.34859 2.09437C5.61925 2.02705 2.459 2.21342 0.967116 4.25998C-0.933567 6.86733 -0.409915 12.5222 -0.409915 12.5222C-0.409915 15.184 1.7479 17.3418 4.40969 17.3418Z" fill="url(#paint0_linear_973_52)"/>
<path d="M18.2461 17.4528C20.9079 17.4528 23.0657 15.295 23.0657 12.6332C23.0657 9.97142 20.9079 7.81361 18.2461 7.81361C17.5069 7.81361 16.8066 7.98002 16.1805 8.27742C16.1805 8.27742 16.4408 7.07354 16.8691 6.43658C17.6168 5.32434 19.4731 5.05358 20.8246 5.0134C21.6546 4.98872 22.3772 4.33472 22.3772 3.50435C22.3772 2.81483 21.874 2.23224 21.185 2.20542C19.4557 2.1381 16.2954 2.32447 14.8035 4.37103C12.9028 6.97838 13.4265 12.6332 13.4265 12.6332C13.4265 15.295 15.5843 17.4528 18.2461 17.4528Z" fill="url(#paint1_linear_973_52)"/>
<path d="M36.7699 2.19443H31.2618C29.7408 2.19443 28.5077 3.42746 28.5077 4.94849C28.5077 6.46952 29.7408 7.70255 31.2618 7.70255H36.7699C38.2909 7.70255 39.524 6.46952 39.524 4.94849C39.524 3.42746 38.2909 2.19443 36.7699 2.19443Z" fill="url(#paint2_linear_973_52)"/>
<path d="M36.7699 11.8336H31.2618C29.7408 11.8336 28.5077 13.0667 28.5077 14.5877C28.5077 16.1087 29.7408 17.3418 31.2618 17.3418H36.7699C38.2909 17.3418 39.524 16.1087 39.524 14.5877C39.524 13.0667 38.2909 11.8336 36.7699 11.8336Z" fill="url(#paint3_linear_973_52)"/>
<path d="M36.7699 21.4729H2.34414C0.823109 21.4729 -0.409927 22.7059 -0.409927 24.2269C-0.409927 25.748 0.823108 26.981 2.34413 26.981H36.7699C38.291 26.981 39.524 25.748 39.524 24.2269C39.524 22.7059 38.291 21.4729 36.7699 21.4729Z" fill="url(#paint4_linear_973_52)"/>
<path d="M36.7699 32.4891H2.34414C0.823109 32.4891 -0.409927 33.7222 -0.409927 35.2432C-0.409927 36.7642 0.823108 37.9972 2.34413 37.9972H36.7699C38.291 37.9972 39.524 36.7642 39.524 35.2432C39.524 33.7222 38.291 32.4891 36.7699 32.4891Z" fill="url(#paint5_linear_973_52)"/>
</g>
<defs>
<linearGradient id="paint0_linear_973_52" x1="11.2949" y1="2.08339" x2="11.2949" y2="17.4528" gradientUnits="userSpaceOnUse">
<stop stop-color="#FDECD7"/>
<stop offset="1" stop-color="#FFB156"/>
</linearGradient>
<linearGradient id="paint1_linear_973_52" x1="11.2949" y1="2.08339" x2="11.2949" y2="17.4528" gradientUnits="userSpaceOnUse">
<stop stop-color="#FDECD7"/>
<stop offset="1" stop-color="#FFB156"/>
</linearGradient>
<linearGradient id="paint2_linear_973_52" x1="19.557" y1="2.19443" x2="19.557" y2="37.9972" gradientUnits="userSpaceOnUse">
<stop stop-color="#FDECD7"/>
<stop offset="1" stop-color="#FFB156"/>
</linearGradient>
<linearGradient id="paint3_linear_973_52" x1="19.557" y1="2.19443" x2="19.557" y2="37.9972" gradientUnits="userSpaceOnUse">
<stop stop-color="#FDECD7"/>
<stop offset="1" stop-color="#FFB156"/>
</linearGradient>
<linearGradient id="paint4_linear_973_52" x1="19.557" y1="2.19443" x2="19.557" y2="37.9972" gradientUnits="userSpaceOnUse">
<stop stop-color="#FDECD7"/>
<stop offset="1" stop-color="#FFB156"/>
</linearGradient>
<linearGradient id="paint5_linear_973_52" x1="19.557" y1="2.19443" x2="19.557" y2="37.9972" gradientUnits="userSpaceOnUse">
<stop stop-color="#FDECD7"/>
<stop offset="1" stop-color="#FFB156"/>
</linearGradient>
<clipPath id="clip0_973_52">
<rect width="40" height="40" fill="white"/>
</clipPath>
</defs>
</svg>
