<svg width="40" height="40" viewBox="0 0 40 40" fill="none" xmlns="http://www.w3.org/2000/svg">
<path fill-rule="evenodd" clip-rule="evenodd" d="M8.19178 3.83562C6.98129 3.83562 6 4.81691 6 6.02739V37.8082C6 39.0187 6.98129 40 8.19178 40H32.3014C33.5119 40 34.4932 39.0187 34.4932 37.8082V6.0274C34.4932 4.81691 33.5119 3.83562 32.3014 3.83562H8.19178ZM13.1233 19.1781C14.0312 19.1781 14.7671 18.4421 14.7671 17.5342C14.7671 16.6264 14.0312 15.8904 13.1233 15.8904C12.2154 15.8904 11.4795 16.6264 11.4795 17.5342C11.4795 18.4421 12.2154 19.1781 13.1233 19.1781ZM13.1233 30.137C14.0312 30.137 14.7671 29.401 14.7671 28.4931C14.7671 27.5853 14.0312 26.8493 13.1233 26.8493C12.2154 26.8493 11.4795 27.5853 11.4795 28.4931C11.4795 29.401 12.2154 30.137 13.1233 30.137ZM14.7671 23.0137C14.7671 23.9215 14.0312 24.6575 13.1233 24.6575C12.2154 24.6575 11.4795 23.9215 11.4795 23.0137C11.4795 22.1058 12.2154 21.3698 13.1233 21.3698C14.0312 21.3698 14.7671 22.1058 14.7671 23.0137ZM18.0548 15.8904C17.4496 15.8904 16.9589 16.381 16.9589 16.9863C16.9589 17.5915 17.4496 18.0822 18.0548 18.0822H30.1096C30.7148 18.0822 31.2055 17.5915 31.2055 16.9863C31.2055 16.381 30.7148 15.8904 30.1096 15.8904H18.0548ZM16.9589 22.4657C16.9589 21.8605 17.4496 21.3698 18.0548 21.3698H30.1096C30.7148 21.3698 31.2055 21.8605 31.2055 22.4657C31.2055 23.071 30.7148 23.5616 30.1096 23.5616H18.0548C17.4496 23.5616 16.9589 23.071 16.9589 22.4657ZM18.0548 26.8493C17.4496 26.8493 16.9589 27.3399 16.9589 27.9452C16.9589 28.5504 17.4496 29.0411 18.0548 29.0411H30.1096C30.7148 29.0411 31.2055 28.5504 31.2055 27.9452C31.2055 27.3399 30.7148 26.8493 30.1096 26.8493H18.0548Z" fill="url(#paint0_linear_973_95)"/>
<path fill-rule="evenodd" clip-rule="evenodd" d="M13.6712 4.38356V6.57534C13.6712 7.18059 14.1619 7.67123 14.7671 7.67123H26.8219C27.4272 7.67123 27.9178 7.18059 27.9178 6.57534V4.38356C27.9178 3.77832 27.4272 3.28767 26.8219 3.28767H25.0106C24.4748 3.28767 24.0159 2.89759 23.8243 2.39734C23.4512 1.4237 22.5974 0 20.7945 0C18.9916 0 18.1379 1.4237 17.7648 2.39734C17.5731 2.89759 17.1142 3.28767 16.5785 3.28767H14.7671C14.1619 3.28767 13.6712 3.77832 13.6712 4.38356ZM20.7945 3.83562C21.7024 3.83562 22.4384 3.09965 22.4384 2.19178C22.4384 1.28392 21.7024 0.547945 20.7945 0.547945C19.8867 0.547945 19.1507 1.28392 19.1507 2.19178C19.1507 3.09965 19.8867 3.83562 20.7945 3.83562Z" fill="url(#paint1_linear_973_95)"/>
<defs>
<linearGradient id="paint0_linear_973_95" x1="20.2466" y1="3.83562" x2="20.2466" y2="40" gradientUnits="userSpaceOnUse">
<stop stop-color="#D6EBBA"/>
<stop offset="1" stop-color="#B0D382"/>
</linearGradient>
<linearGradient id="paint1_linear_973_95" x1="20.7945" y1="0" x2="20.7945" y2="7.67123" gradientUnits="userSpaceOnUse">
<stop stop-color="#D6EBBA"/>
<stop offset="1" stop-color="#B0D382"/>
</linearGradient>
</defs>
</svg>
