<svg width="40" height="40" viewBox="0 0 40 40" fill="none" xmlns="http://www.w3.org/2000/svg">
<g clip-path="url(#clip0_973_21)">
<path fill-rule="evenodd" clip-rule="evenodd" d="M20 40C31.0457 40 40 31.0457 40 20C40 8.9543 31.0457 0 20 0C8.9543 0 0 8.9543 0 20C0 31.0457 8.9543 40 20 40ZM15.4111 15.1515C16.2719 15.1515 17.1348 14.3821 16.739 13.6177C16.5867 13.3236 16.3635 13.0564 16.0821 12.8313C15.8008 12.6061 15.4667 12.4276 15.099 12.3057C14.7314 12.1839 14.3373 12.1212 13.9394 12.1212C13.5415 12.1212 13.1474 12.1839 12.7797 12.3057C12.4121 12.4276 12.078 12.6061 11.7966 12.8313C11.5153 13.0564 11.292 13.3236 11.1398 13.6177C10.744 14.3821 11.6069 15.1515 12.4677 15.1515H15.4111ZM29.0909 21.2121C30.4298 21.2121 31.5407 22.3092 31.2609 23.6185C31.115 24.3012 30.907 24.9708 30.6386 25.6188C30.0599 27.0159 29.2117 28.2853 28.1424 29.3546C27.0732 30.4238 25.8037 31.272 24.4067 31.8507C23.0096 32.4294 21.5122 32.7273 20 32.7273C18.4878 32.7273 16.9904 32.4294 15.5933 31.8507C14.1963 31.272 12.9268 30.4238 11.8576 29.3546C10.7883 28.2853 9.94008 27.0159 9.36139 25.6188C9.09297 24.9708 8.88497 24.3012 8.7391 23.6185C8.45931 22.3092 9.57022 21.2121 10.9091 21.2121H29.0909ZM28.8602 13.6177C29.256 14.3821 28.3931 15.1515 27.5323 15.1515H24.5889C23.7281 15.1515 22.8652 14.3821 23.261 13.6177C23.4133 13.3236 23.6365 13.0564 23.9179 12.8313C24.1993 12.6061 24.5333 12.4276 24.901 12.3057C25.2686 12.1839 25.6627 12.1212 26.0606 12.1212C26.4586 12.1212 26.8526 12.1839 27.2203 12.3057C27.5879 12.4276 27.922 12.6061 28.2034 12.8313C28.4847 13.0564 28.708 13.3236 28.8602 13.6177Z" fill="url(#paint0_linear_973_21)"/>
</g>
<defs>
<linearGradient id="paint0_linear_973_21" x1="20" y1="0" x2="20" y2="40" gradientUnits="userSpaceOnUse">
<stop stop-color="#D6EBBA"/>
<stop offset="1" stop-color="#B0D382"/>
</linearGradient>
<clipPath id="clip0_973_21">
<rect width="40" height="40" fill="white"/>
</clipPath>
</defs>
</svg>
