<svg width="40" height="40" viewBox="0 0 40 40" fill="none" xmlns="http://www.w3.org/2000/svg">
<g clip-path="url(#clip0_990_17)">
<circle cx="20" cy="20" r="20" fill="url(#paint0_linear_990_17)"/>
<path d="M15.3703 15.0303C16.2311 15.0303 17.094 14.2609 16.6982 13.4965C16.5459 13.2024 16.3227 12.9352 16.0413 12.71C15.7599 12.4849 15.4259 12.3064 15.0582 12.1845C14.6906 12.0627 14.2965 12 13.8986 12C13.5006 12 13.1066 12.0627 12.7389 12.1845C12.3713 12.3064 12.0372 12.4849 11.7558 12.71C11.4744 12.9352 11.2512 13.2024 11.0989 13.4965C10.7031 14.2609 11.5661 15.0303 12.4269 15.0303H15.3703Z" fill="white"/>
<path d="M27.4915 15.0303C28.3523 15.0303 29.2152 14.2609 28.8194 13.4965C28.6671 13.2024 28.4439 12.9352 28.1625 12.71C27.8811 12.4849 27.5471 12.3064 27.1794 12.1845C26.8118 12.0627 26.4177 12 26.0198 12C25.6218 12 25.2278 12.0627 24.8601 12.1845C24.4925 12.3064 24.1584 12.4849 23.877 12.71C23.5956 12.9352 23.3724 13.2024 23.2201 13.4965C22.8244 14.2609 23.6873 15.0303 24.5481 15.0303H27.4915Z" fill="white"/>
<path d="M12.5996 25.5C12.5996 24.6716 13.2712 24 14.0996 24H25.0996C25.9281 24 26.5996 24.6716 26.5996 25.5C26.5996 26.3284 25.9281 27 25.0996 27H14.0996C13.2712 27 12.5996 26.3284 12.5996 25.5Z" fill="white"/>
</g>
<defs>
<linearGradient id="paint0_linear_990_17" x1="20" y1="0" x2="20" y2="40" gradientUnits="userSpaceOnUse">
<stop stop-color="#D6EBBA"/>
<stop offset="1" stop-color="#B0D382"/>
</linearGradient>
<clipPath id="clip0_990_17">
<rect width="40" height="40" fill="white"/>
</clipPath>
</defs>
</svg>
