<svg width="40" height="40" viewBox="0 0 40 40" fill="none" xmlns="http://www.w3.org/2000/svg">
<g clip-path="url(#clip0_990_7)">
<circle cx="20" cy="20" r="20" fill="url(#paint0_linear_990_7)"/>
<path d="M15.7706 15.0303C16.6314 15.0303 17.4943 14.2609 17.0986 13.4965C16.9463 13.2024 16.7231 12.9352 16.4417 12.71C16.1603 12.4849 15.8262 12.3064 15.4586 12.1845C15.0909 12.0627 14.6969 12 14.2989 12C13.901 12 13.5069 12.0627 13.1393 12.1845C12.7716 12.3064 12.4376 12.4849 12.1562 12.71C11.8748 12.9352 11.6516 13.2024 11.4993 13.4965C11.1035 14.2609 11.9664 15.0303 12.8272 15.0303H15.7706Z" fill="white"/>
<path d="M27.8918 15.0303C28.7526 15.0303 29.6156 14.2609 29.2198 13.4965C29.0675 13.2024 28.8443 12.9352 28.5629 12.71C28.2815 12.4849 27.9474 12.3064 27.5798 12.1845C27.2121 12.0627 26.8181 12 26.4201 12C26.0222 12 25.6281 12.0627 25.2605 12.1845C24.8928 12.3064 24.5588 12.4849 24.2774 12.71C23.996 12.9352 23.7728 13.2024 23.6205 13.4965C23.2247 14.2609 24.0876 15.0303 24.9484 15.0303H27.8918Z" fill="white"/>
<path d="M11.2135 28.7473C9.87461 28.7473 8.76369 28.0092 9.04348 27.1284C9.18936 26.6692 9.39736 26.2188 9.66578 25.7828C10.2445 24.843 11.0927 23.989 12.1619 23.2697C13.2312 22.5504 14.5006 21.9798 15.8977 21.5905C17.2948 21.2012 18.7922 21.0008 20.3044 21.0008C21.8166 21.0008 23.314 21.2012 24.711 21.5905C26.1081 21.9798 27.3776 22.5504 28.4468 23.2697C29.5161 23.989 30.3643 24.843 30.943 25.7828C31.2114 26.2188 31.4194 26.6692 31.5653 27.1285C31.8451 28.0092 30.7342 28.7473 29.3953 28.7473H11.2135Z" fill="white"/>
</g>
<defs>
<linearGradient id="paint0_linear_990_7" x1="20" y1="0" x2="20" y2="40" gradientUnits="userSpaceOnUse">
<stop stop-color="#D6EBBA"/>
<stop offset="1" stop-color="#B0D382"/>
</linearGradient>
<clipPath id="clip0_990_7">
<rect width="40" height="40" fill="white"/>
</clipPath>
</defs>
</svg>
