<svg width="40" height="40" viewBox="0 0 40 40" fill="none" xmlns="http://www.w3.org/2000/svg">
<path d="M12.1773 29.3981C12.4019 29.229 12.7112 29.229 12.9358 29.3981L23.6073 37.4345C24.0907 37.7985 23.8333 38.5684 23.2281 38.5684H1.88503C1.27984 38.5684 1.02236 37.7985 1.5058 37.4345L12.1773 29.3981Z" fill="url(#paint0_linear_973_69)"/>
<path d="M11.9066 4.22438L11.3217 32.8823C11.3075 33.5813 11.8702 34.1557 12.5694 34.1557C13.2586 34.1557 13.8173 33.597 13.8173 32.9078V21.5478C13.8173 21.5478 17.7201 20.5634 19.4909 20.287C24.452 19.5126 27.159 23.0982 32.0988 22.8086C34.3435 22.677 37.4492 22.0819 39.0143 21.7585C39.5916 21.6393 40 21.1291 40 20.5396V4.84301C40 4.03485 39.2513 3.43165 38.4588 3.58997C36.7911 3.92312 34.1021 4.40972 32.0988 4.52718C27.159 4.81681 24.5098 1.85413 19.4909 2.00561C17.3311 2.07079 14.3501 2.6982 12.8571 3.04263C12.3053 3.16993 11.9182 3.6582 11.9066 4.22438Z" fill="url(#paint1_linear_973_69)"/>
<defs>
<linearGradient id="paint0_linear_973_69" x1="12.5566" y1="29.1125" x2="12.5566" y2="38.5684" gradientUnits="userSpaceOnUse">
<stop stop-color="#FFB156"/>
<stop offset="1" stop-color="#FDECD7"/>
</linearGradient>
<linearGradient id="paint1_linear_973_69" x1="25.6479" y1="1.99998" x2="25.6479" y2="34.1557" gradientUnits="userSpaceOnUse">
<stop stop-color="#FFB156"/>
<stop offset="1" stop-color="#FDECD7"/>
</linearGradient>
</defs>
</svg>
